<svg width="84" height="84" viewBox="0 0 84 84" fill="none" xmlns="http://www.w3.org/2000/svg">
<path d="M42 0.599976C19.1706 0.599976 0.600006 19.1724 0.600006 42C0.600006 64.8276 19.1706 83.4 42 83.4C64.8294 83.4 83.4 64.8276 83.4 42C83.4 19.1724 64.8294 0.599976 42 0.599976ZM34.8 15H38.4V20.4H42V15H45.6V20.4281C49.3152 20.5937 58.0207 21.8353 58.0207 31.0207C58.0207 38.4007 51.7186 40.3814 50.4586 40.7414V40.9207C53.1586 41.2807 59.6414 43.7986 59.6414 51.3586C59.6414 62.299 49.7418 63.4689 45.6 63.5859V69H42V63.6H38.4V69H34.8V63.6H25.8V20.4H34.8V15ZM29.9414 23.8207V39.3H44.1586C45.7786 39.3 47.2193 39.1186 48.4793 38.7586C49.7393 38.3986 50.6414 37.8614 51.5414 37.1414C52.2614 36.4214 52.9814 35.7 53.3414 34.8C53.7014 33.9 53.8793 33.0007 53.8793 31.9207C53.8793 26.5207 50.6386 23.8207 44.1586 23.8207H29.9414ZM29.9414 42.9V60.1793H44.1586C45.7786 60.1793 47.2193 60.0007 48.4793 59.8207C49.9193 59.6407 50.9993 59.0993 52.0793 58.3793C53.1593 57.6593 53.88 56.7593 54.6 55.6793C55.14 54.5993 55.5 53.1586 55.5 51.3586C55.5 48.6586 54.6007 46.4986 52.6207 45.0586C50.6407 43.6186 47.7586 42.9 44.1586 42.9H29.9414Z" fill="#DC5B24"/>
</svg>
