<svg width="1095" height="582" viewBox="0 0 1095 582" fill="none" xmlns="http://www.w3.org/2000/svg">
<path d="M3.03123 533.724C2.74694 519.253 4.2821 490.676 12.6971 492.134C21.1121 493.592 31.9341 505.334 36.2932 511.023C44.3481 510.36 61.0264 507.345 63.3008 500.584C65.5751 493.824 71.6399 545.378 74.3881 572L96.847 521.628L109.356 529.747L122.717 504.23L135.226 507.875C145.271 501.799 166.1 490.145 169.057 492.134C172.013 494.122 179.575 503.456 182.987 507.875L198.054 492.134L206.014 451.704L221.65 445.904L232.453 386.253L257.755 424.86L267.99 492.134L280.783 456.674L292.154 445.904L305.516 456.674L319.731 451.704C324.374 470.427 335.025 507.875 340.484 507.875C345.942 507.875 376.494 466.561 391.087 445.904L402.175 465.125L415.821 461.645L424.918 471.09L439.417 468.108L463.013 471.09L474.384 525.439L487.177 495.945L510.205 504.23L522.714 484.843C531.337 478.105 548.357 464.031 547.447 461.645C546.31 458.663 570.475 454.686 572.18 451.704C573.886 448.721 587.532 458.663 598.051 458.663C606.466 458.663 616.909 457.337 621.078 456.674L633.018 443.916L642.969 450.047L658.32 443.916L668.27 458.663L681.348 443.916L694.141 445.904L704.375 439.939L717.168 445.904L730.814 433.311L741.333 406.468C749.862 411.052 766.407 421.149 764.36 424.86C762.314 428.572 773.742 414.145 779.712 406.468L789.662 359.907L805.014 352.451L814.396 315.666C816.67 312.186 822.015 305.293 825.199 305.558C828.383 305.823 843.393 332.954 850.5 346.485C865.378 305.116 894.111 221.649 890.017 218.733C885.923 215.816 895.703 212.215 901.104 210.779L908.496 56.1831L924.132 82.3634L935.503 149.471L971.324 7.30233L983.833 3.98837C994.446 38.5087 1018.17 107.682 1028.18 108.212C1038.19 108.742 1051.87 47.0145 1057.46 16.0843L1068.27 25.032L1093 2" stroke="#DC5B24" stroke-width="5"/>
</svg>
